<?xml version="1.0" encoding="iso-8859-1"?>
<!-- Generator: Adobe Illustrator 19.0.0, SVG Export Plug-In . SVG Version: 6.00 Build 0)  -->
<svg fill="#fff" version="1.1" id="Capa_1" xmlns="http://www.w3.org/2000/svg" xmlns:xlink="http://www.w3.org/1999/xlink" x="0px" y="0px"
	 viewBox="0 0 111.966 111.966" style="enable-background:new 0 0 111.966 111.966;" xml:space="preserve">
<g>
	<path style="fill:#fff;" d="M105.612,40.379L58.873,1.06c-1.683-1.413-4.136-1.413-5.817,0L5.986,40.658
		C4.533,41.88,4,43.88,4.65,45.663c0.651,1.783,2.346,2.971,4.245,2.971h6.867v52.489c0,5.988,4.855,10.842,10.842,10.842h15.358
		V81.249c0-1.994,1.619-3.613,3.614-3.613h20.779c1.996,0,3.613,1.619,3.613,3.613v30.717h15.359
		c5.987,0,10.841-4.857,10.841-10.842v-52.49h6.866c0.014,0.001,0.03,0,0.039,0c2.495,0,4.517-2.022,4.517-4.518
		C107.588,42.562,106.805,41.19,105.612,40.379z"/>
</g>
<g>
</g>
<g>
</g>
<g>
</g>
<g>
</g>
<g>
</g>
<g>
</g>
<g>
</g>
<g>
</g>
<g>
</g>
<g>
</g>
<g>
</g>
<g>
</g>
<g>
</g>
<g>
</g>
<g>
</g>
</svg>
