<?xml version="1.0" encoding="iso-8859-1"?>
<!-- Generator: Adobe Illustrator 19.0.0, SVG Export Plug-In . SVG Version: 6.00 Build 0)  -->
<svg fill="#fff" version="1.1" id="Layer_1" xmlns="http://www.w3.org/2000/svg" xmlns:xlink="http://www.w3.org/1999/xlink" x="0px" y="0px"
	 viewBox="0 0 330 330" style="enable-background:new 0 0 330 330;" xml:space="preserve">
<g id="XMLID_106_">
	<path id="XMLID_107_" d="M323.954,32.98c-3.805-2.832-8.723-3.697-13.265-2.334L230,54.854v271.305l89.31-26.793
		c6.345-1.904,10.69-7.744,10.69-14.367V45.014C330,40.273,327.758,35.811,323.954,32.98z"/>
	<path id="XMLID_108_" d="M172.719,32.145L130,6.506V281.49l70,42V48.52l-27.25-16.354C172.739,32.16,172.73,32.152,172.719,32.145z
		"/>
	<path id="XMLID_109_" d="M0,44.998v240c0,4.74,2.242,9.203,6.046,12.033c2.619,1.949,5.767,2.967,8.955,2.967
		c1.442,0,2.894-0.209,4.309-0.633L100,275.158V3.842L10.69,30.631C4.346,32.533,0,38.373,0,44.998z"/>
</g>
<g>
</g>
<g>
</g>
<g>
</g>
<g>
</g>
<g>
</g>
<g>
</g>
<g>
</g>
<g>
</g>
<g>
</g>
<g>
</g>
<g>
</g>
<g>
</g>
<g>
</g>
<g>
</g>
<g>
</g>
</svg>
