<?xml version="1.0" encoding="iso-8859-1"?>
<!-- Generator: Adobe Illustrator 18.0.0, SVG Export Plug-In . SVG Version: 6.00 Build 0)  -->
<!DOCTYPE svg PUBLIC "-//W3C//DTD SVG 1.1//EN" "http://www.w3.org/Graphics/SVG/1.1/DTD/svg11.dtd">
<svg version="1.1" id="Capa_1" xmlns="http://www.w3.org/2000/svg" xmlns:xlink="http://www.w3.org/1999/xlink" x="0px" y="0px"
	 viewBox="0 0 49.562 49.562" fill="white" style="enable-background:new 0 0 49.562 49.562;" xml:space="preserve">
<path d="M31.261,22.516L48.257,5.471c3.244-3.841-0.371-5.324-2.074-5.323H26.135c-1.704,0-3.085,1.381-3.085,3.085
	c-0.001,1.702,1.382,3.085,3.084,3.084h12.602L26.899,18.154c-6.682-4.621-15.938-3.964-21.882,1.981
	c-6.689,6.689-6.689,17.574,0,24.263s17.574,6.689,24.263,0C35.225,38.453,35.882,29.198,31.261,22.516z M9.379,40.036
	c-4.284-4.284-4.284-11.255,0-15.54s11.255-4.284,15.54,0s4.284,11.255,0,15.54S13.663,44.32,9.379,40.036z"/>
<g>
</g>
<g>
</g>
<g>
</g>
<g>
</g>
<g>
</g>
<g>
</g>
<g>
</g>
<g>
</g>
<g>
</g>
<g>
</g>
<g>
</g>
<g>
</g>
<g>
</g>
<g>
</g>
<g>
</g>
</svg>
